<svg xmlns="http://www.w3.org/2000/svg" version="1.1" xmlns:xlink="http://www.w3.org/1999/xlink" xmlns:svgjs="http://svgjs.dev/svgjs" width="1500" height="1687" viewBox="0 0 1500 1687"><g transform="matrix(1,0,0,1,0.00044062500001018634,0)"><svg viewBox="0 0 320 360" data-background-color="#000000" preserveAspectRatio="xMidYMid meet" height="1687" width="1500" xmlns="http://www.w3.org/2000/svg" xmlns:xlink="http://www.w3.org/1999/xlink"><g id="tight-bounds" transform="matrix(1,0,0,1,-0.000046999999995023245,0)"><svg viewBox="0 0 320 360" height="360" width="320"><rect width="320.000141" height="360" fill="url(#b3e30de0-2ed9-47cd-85db-33ae1b11ef82)" mask="url(#84bfed02-28e7-405c-8d58-a6e6ca7b0985)" data-fill-palette-color="tertiary"></rect><g><svg></svg></g><g><svg viewBox="0 0 320 360" height="360" width="320"><g><path transform="translate(-74.99272,-51.79039) scale(4.65793,4.65793)" d="M20.6 59.9l0.8 1-0.4-1.3c-0.1-0.6-0.8 0.1-0.4 0.3M21.5 59.3c0.3 0.5 0.6 1 0.6 1.5 0 0.7 0.6 1 1.1 1.2-0.7-0.8-1.1-3-1.7-2.7M59.9 16.9c1.7 0 3.3-0.2 5.1 0.2 4.4 1.1 8.1 3.3 10.6 6.4l7 11.2c0.3 2.8 0.9 5.9 0.8 9.3 0.7 0 0.6-1 1.4-1.2-0.8 2-1.2 4.5-1.4 7.4-0.5-1.6 0-4 0.1-5.3-0.7 1.1-1.1 0.3-1.1-0.2 0.1-0.8-0.3-0.7-0.6-1-1.1-1-1.8-2.1-2.6-3.8 0.5-1.3 0.6-3.2-1-4.2-0.5-0.3-1.1-0.8-1.4-1.6-0.4-1.1-1.1-2.4-0.9-4.1 0.1-0.5-1.5 1.1-2.4 0.4-3.9-2.7-7.8-5.8-12.5-8.4-2.5 0-4.3-0.9-5.2-2-0.8-1-0.2-2.3 1-2.4 0.7 0 1.5-0.2 2.1 0.2 0.1-0.4 0.5-0.9 1-0.9M50 14.6l0.2 0.1c1 0.2 1.5 1.6 2.6 1.1 0 0.7 0.1 1.4-0.1 1.9-0.3 0.8-1.2 0.8-1.9 0.8-6.7-0.4-10.6 2.4-14.7 4.8-1.1 0.7-2.3 1.2-3.2 2.1-4.3 4-9 7.7-10.1 15.1l-0.9 8.2c-0.1 0.9-1.1 1.8-0.9 2.9l0.7 4.9c-0.7-0.7-1.1 0.2-0.9 0.6 0.1 0.3 0.5 1.3 1.1 0.4 0.8 1.5 1.6 4.4 2.7 5.7 3.4 4 7.8 7.6 11.4 11.2 0.9-0.2 1.6-0.2 1.8-0.8 0.3 0.6-0.3 1.2-0.8 1.3 1.6 1 3.4 1.9 5.8 2.1 3.1 0.2 6 0.7 8.7 1.4 1.4-0.4 2.8-0.6 4.3-0.7 0.5 0 0.8-0.8 1.4-1l0.1-1c0.6 0.9 0.5-0.3 0.1-0.9 0.7 0.6 0.9 1.1 1.2 1.5 0-0.3 0.8-1.4 0.8-0.1l0.2-1.3c0.3-0.2 0.4 1.1 0.7 0.2 0.3-0.9 0.9-0.2 1.5-0.5-0.2 0.4-0.1 1.2 0.6 0.7l0.8-0.7c0.5 1.2 1.3 0.7 1.7 0.5 4.4-2.8 8.8-6.1 13-9.4l-0.1 1.3 0.5-1.6c0.5 0.5 0.9 0.1 1.1-0.2 0.6-1 1.4-2 2.7-2.9-1.6 4.3-3.5 7.7-5.9 10.5l-1 1.2c0 0.7-0.2 1.6-1 1.7-0.4 0.1-1.2-0.2-1.8 0.4-0.3 0.4 0.7 1.2-0.1 0.6-0.7-0.5-1.4 0-2.2 0.2-0.6 0.2 0.4 0.8 0.6 1.2 0.2 0.4 0.4 0.8 0.3 1.3l-1.1-1.2c-1.3 0.7-2.1 2-3.2 3-0.5 0.4-0.3 1.1-0.3 1.7-0.7 0-1.5-0.2-1.9 0.2-0.3 0.4-0.2 1-0.2 1.6-1-0.1-1.1-1.6-2-1.3-0.9 0.2-1.9 0.3-2.7 0.8 0.6 1.2-1 0.5-0.8 0.7-1.5-0.9-2.8-1.6-4.4-1-3.4-1.1-7.6-0.6-10.7-0.2 0-0.5 0.1-1-0.1-1.1-0.2 0.5-0.8 0.3-0.7 0.3-1.9-1.3-3.8-2.1-5.8-3.2-1.8 0.2-3.5-0.7-4-1.2-1.4-1.3-3-0.6-4.3-0.9-2.8-0.7-3.8-3.6-4.1-5.6-0.2-1-1-1.4-1.3-1.3-1.3-4.2-3.3-8-4.9-11.9-0.4-1-0.3-2-0.3-3.1 0.5 0.2 1 0.1 0.9-0.6-0.5-3.3-1.7-5.8-3-8.2 0.7-3.4 0.8-7.4 2.4-10.4 1.4-2.7 4-4.1 5.8-6.4 0.6-0.8 0.6-1.9 1.2-2.6 2-2 4-4.1 6.2-5.9 1-0.8 2.2 0 3.7-0.3 0.5-1.8 2.5-3.4 4.4-2.9 0.8 0.2 2.4-1.9 2.9-2.1 0.8-0.3 0.4 0.8 0.4 1.5 1.9-1.5 4.5-2.3 6.9-3.2" fill="url(#b3e30de0-2ed9-47cd-85db-33ae1b11ef82)" fill-rule="nonzero" stroke="none" stroke-width="1" stroke-linecap="butt" stroke-linejoin="miter" stroke-miterlimit="10" stroke-dasharray="" stroke-dashoffset="0" font-family="none" font-weight="none" font-size="none" text-anchor="none" style="mix-blend-mode: normal" data-fill-palette-color="tertiary"></path></g><g transform="matrix(1,0,0,1,129.30156755358985,90)"><svg viewBox="0 0 61.39686489282031 180" height="180" width="61.39686489282031"><g><svg viewBox="0 0 61.39686489282031 180" height="180" width="61.39686489282031"><g><svg viewBox="0 0 124.4413407821229 364.8303765979668" height="180" width="61.39686489282031"><g transform="matrix(1,0,0,1,0,184.8303765979668)"><svg viewBox="0 0 124.4413407821229 180" height="180" width="124.4413407821229"><g id="textblocktransform"><svg viewBox="0 0 124.4413407821229 180" height="180" width="124.4413407821229" id="textblock"><g><svg viewBox="0 0 124.4413407821229 180" height="180" width="124.4413407821229"><g transform="matrix(1,0,0,1,0,0)"><svg width="124.4413407821229" viewBox="4.5 -35.4 24.75 35.8" height="180" data-palette-color="url(#fa180603-7b75-4bed-96d4-a04e13ed6076)"></svg></g></svg></g></svg></g></svg></g><g transform="matrix(1,0,0,1,23.768296089385473,0)"><svg viewBox="0 0 76.90474860335195 158.56405659796678" height="158.56405659796678" width="76.90474860335195"><g><svg xmlns="http://www.w3.org/2000/svg" xmlns:xlink="http://www.w3.org/1999/xlink" version="1.1" x="0" y="0" viewBox="24.83940710972183 2.8 41.06059289027817 84.65971598945407" enable-background="new 0 0 90 90" xml:space="preserve" height="158.56405659796678" width="76.90474860335195" class="icon-icon-0" data-fill-palette-color="accent" id="icon-0"></svg></g></svg></g><g></g></svg></g></svg></g></svg></g></svg></g><defs></defs><mask id="c7bed899-9466-4dc9-8a8f-d991d3a53136"><g id="SvgjsG2402"><svg viewBox="0 0 320 360" height="360" width="320"><g><svg></svg></g><g><svg viewBox="0 0 320 360" height="360" width="320"><g><path transform="translate(-74.99272,-51.79039) scale(4.65793,4.65793)" d="M20.6 59.9l0.8 1-0.4-1.3c-0.1-0.6-0.8 0.1-0.4 0.3M21.5 59.3c0.3 0.5 0.6 1 0.6 1.5 0 0.7 0.6 1 1.1 1.2-0.7-0.8-1.1-3-1.7-2.7M59.9 16.9c1.7 0 3.3-0.2 5.1 0.2 4.4 1.1 8.1 3.3 10.6 6.4l7 11.2c0.3 2.8 0.9 5.9 0.8 9.3 0.7 0 0.6-1 1.4-1.2-0.8 2-1.2 4.5-1.4 7.4-0.5-1.6 0-4 0.1-5.3-0.7 1.1-1.1 0.3-1.1-0.2 0.1-0.8-0.3-0.7-0.6-1-1.1-1-1.8-2.1-2.6-3.8 0.5-1.3 0.6-3.2-1-4.2-0.5-0.3-1.1-0.8-1.4-1.6-0.4-1.1-1.1-2.4-0.9-4.1 0.1-0.5-1.5 1.1-2.4 0.4-3.9-2.7-7.8-5.8-12.5-8.4-2.5 0-4.3-0.9-5.2-2-0.8-1-0.2-2.3 1-2.4 0.7 0 1.5-0.2 2.1 0.2 0.1-0.4 0.5-0.9 1-0.9M50 14.6l0.2 0.1c1 0.2 1.5 1.6 2.6 1.1 0 0.7 0.1 1.4-0.1 1.9-0.3 0.8-1.2 0.8-1.9 0.8-6.7-0.4-10.6 2.4-14.7 4.8-1.1 0.7-2.3 1.2-3.2 2.1-4.3 4-9 7.7-10.1 15.1l-0.9 8.2c-0.1 0.9-1.1 1.8-0.9 2.9l0.7 4.9c-0.7-0.7-1.1 0.2-0.9 0.6 0.1 0.3 0.5 1.3 1.1 0.4 0.8 1.5 1.6 4.4 2.7 5.7 3.4 4 7.8 7.6 11.4 11.2 0.9-0.2 1.6-0.2 1.8-0.8 0.3 0.6-0.3 1.2-0.8 1.3 1.6 1 3.4 1.9 5.8 2.1 3.1 0.2 6 0.7 8.7 1.4 1.4-0.4 2.8-0.6 4.3-0.7 0.5 0 0.8-0.8 1.4-1l0.1-1c0.6 0.9 0.5-0.3 0.1-0.9 0.7 0.6 0.9 1.1 1.2 1.5 0-0.3 0.8-1.4 0.8-0.1l0.2-1.3c0.3-0.2 0.4 1.1 0.7 0.2 0.3-0.9 0.9-0.2 1.5-0.5-0.2 0.4-0.1 1.2 0.6 0.7l0.8-0.7c0.5 1.2 1.3 0.7 1.7 0.5 4.4-2.8 8.8-6.1 13-9.4l-0.1 1.3 0.5-1.6c0.5 0.5 0.9 0.1 1.1-0.2 0.6-1 1.4-2 2.7-2.9-1.6 4.3-3.5 7.7-5.9 10.5l-1 1.2c0 0.7-0.2 1.6-1 1.7-0.4 0.1-1.2-0.2-1.8 0.4-0.3 0.4 0.7 1.2-0.1 0.6-0.7-0.5-1.4 0-2.2 0.2-0.6 0.2 0.4 0.8 0.6 1.2 0.2 0.4 0.4 0.8 0.3 1.3l-1.1-1.2c-1.3 0.7-2.1 2-3.2 3-0.5 0.4-0.3 1.1-0.3 1.7-0.7 0-1.5-0.2-1.9 0.2-0.3 0.4-0.2 1-0.2 1.6-1-0.1-1.1-1.6-2-1.3-0.9 0.2-1.9 0.3-2.7 0.8 0.6 1.2-1 0.5-0.8 0.7-1.5-0.9-2.8-1.6-4.4-1-3.4-1.1-7.6-0.6-10.7-0.2 0-0.5 0.1-1-0.1-1.1-0.2 0.5-0.8 0.3-0.7 0.3-1.9-1.3-3.8-2.1-5.8-3.2-1.8 0.2-3.5-0.7-4-1.2-1.4-1.3-3-0.6-4.3-0.9-2.8-0.7-3.8-3.6-4.1-5.6-0.2-1-1-1.4-1.3-1.3-1.3-4.2-3.3-8-4.9-11.9-0.4-1-0.3-2-0.3-3.1 0.5 0.2 1 0.1 0.9-0.6-0.5-3.3-1.7-5.8-3-8.2 0.7-3.4 0.8-7.4 2.4-10.4 1.4-2.7 4-4.1 5.8-6.4 0.6-0.8 0.6-1.9 1.2-2.6 2-2 4-4.1 6.2-5.9 1-0.8 2.2 0 3.7-0.3 0.5-1.8 2.5-3.4 4.4-2.9 0.8 0.2 2.4-1.9 2.9-2.1 0.8-0.3 0.4 0.8 0.4 1.5 1.9-1.5 4.5-2.3 6.9-3.2" fill="black" fill-rule="nonzero" stroke="none" stroke-width="1" stroke-linecap="butt" stroke-linejoin="miter" stroke-miterlimit="10" stroke-dasharray="" stroke-dashoffset="0" font-family="none" font-weight="none" font-size="none" text-anchor="none" style="mix-blend-mode: normal"></path></g><g transform="matrix(1,0,0,1,129.30156755358985,90)"><svg viewBox="0 0 61.39686489282031 180" height="180" width="61.39686489282031"><g><svg viewBox="0 0 61.39686489282031 180" height="180" width="61.39686489282031"><g><svg viewBox="0 0 124.4413407821229 364.8303765979668" height="180" width="61.39686489282031"><g transform="matrix(1,0,0,1,0,184.8303765979668)"><svg viewBox="0 0 124.4413407821229 180" height="180" width="124.4413407821229"><g id="SvgjsG2401"><svg viewBox="0 0 124.4413407821229 180" height="180" width="124.4413407821229" id="SvgjsSvg2400"><g><svg viewBox="0 0 124.4413407821229 180" height="180" width="124.4413407821229"><g transform="matrix(1,0,0,1,0,0)"><svg width="124.4413407821229" viewBox="4.5 -35.4 24.75 35.8" height="180" data-palette-color="url(#fa180603-7b75-4bed-96d4-a04e13ed6076)"><path d="M14.6 0.4L14.6 0.4Q11.55 0.4 8.83 0.25 6.1 0.1 4.5-0.1L4.5-0.1 4.5-34.9Q6.25-35.1 8.85-35.25 11.45-35.4 14.8-35.4L14.8-35.4Q21.2-35.4 24.65-32.98 28.1-30.55 28.1-26.4L28.1-26.4Q28.1-23.65 26.63-21.73 25.15-19.8 22.35-18.55L22.35-18.55Q25.75-17.35 27.5-15.23 29.25-13.1 29.25-10L29.25-10Q29.25-5.25 25.5-2.43 21.75 0.4 14.6 0.4ZM9.25-31.3L9.25-19.9 14.75-19.9Q18.7-19.9 21.03-21.55 23.35-23.2 23.35-25.8L23.35-25.8Q23.35-28.6 21.05-30.08 18.75-31.55 14.75-31.55L14.75-31.55Q13.1-31.55 11.75-31.48 10.4-31.4 9.25-31.3L9.25-31.3ZM14.95-3.55L14.95-3.55Q19.4-3.55 21.9-5.15 24.4-6.75 24.4-9.8L24.4-9.8Q24.4-12.8 21.95-14.5 19.5-16.2 14.95-16.2L14.95-16.2 9.25-16.2 9.25-3.85Q11.9-3.55 14.95-3.55Z" opacity="1" transform="matrix(1,0,0,1,0,0)" fill="white" class="wordmark-text-0" id="SvgjsPath2399"></path></svg></g></svg></g></svg></g></svg></g><g transform="matrix(1,0,0,1,23.768296089385473,0)"><svg viewBox="0 0 76.90474860335195 158.56405659796678" height="158.56405659796678" width="76.90474860335195"><g><svg xmlns="http://www.w3.org/2000/svg" xmlns:xlink="http://www.w3.org/1999/xlink" version="1.1" x="0" y="0" viewBox="24.83940710972183 2.8 41.06059289027817 84.65971598945407" enable-background="new 0 0 90 90" xml:space="preserve" height="158.56405659796678" width="76.90474860335195" class="icon-icon-0" data-fill-palette-color="accent" id="SvgjsSvg2398"><path d="M33.3 9.2c-0.7 0.9-1.4 1.8-1.9 2.8-16 25.4 2.4 56 1.6 73.4 0 3.4 13.3 2.4 17.5-1.6 4.2-3.9-11-24-11-40.2 0-3.9 0.5-7.2 1.2-9.9 2.2 0.8 4.5 1.3 7 1.3 10 0 18.2-7.2 18.2-16.1S57.8 2.8 47.8 2.8C41.9 2.8 36.7 5.3 33.3 9.2 33.3 9.2 33.3 9.2 33.3 9.2 33.3 9.2 33.3 9.2 33.3 9.2z" fill="black"></path></svg></g></svg></g><g></g></svg></g></svg></g></svg></g></svg></g><defs><mask></mask></defs></svg><rect width="320" height="360" fill="black" stroke="none" visibility="hidden"></rect></g></mask><linearGradient x1="0" x2="1" y1="0.578" y2="0.595" id="fa180603-7b75-4bed-96d4-a04e13ed6076"><stop stop-color="#dede50" offset="0"></stop><stop stop-color="#559c49" offset="1"></stop></linearGradient><rect width="320.000047" height="360" fill="url(#fa180603-7b75-4bed-96d4-a04e13ed6076)" mask="url(#c7bed899-9466-4dc9-8a8f-d991d3a53136)" data-fill-palette-color="primary"></rect><mask id="5d2872dc-c14d-41f3-bac7-7f1bc1eba5ad"><g id="SvgjsG2421"><svg viewBox="0 0 320 360" height="360" width="320"><g><svg></svg></g><g><svg viewBox="0 0 320 360" height="360" width="320"><g><path transform="translate(-74.99272,-51.79039) scale(4.65793,4.65793)" d="M20.6 59.9l0.8 1-0.4-1.3c-0.1-0.6-0.8 0.1-0.4 0.3M21.5 59.3c0.3 0.5 0.6 1 0.6 1.5 0 0.7 0.6 1 1.1 1.2-0.7-0.8-1.1-3-1.7-2.7M59.9 16.9c1.7 0 3.3-0.2 5.1 0.2 4.4 1.1 8.1 3.3 10.6 6.4l7 11.2c0.3 2.8 0.9 5.9 0.8 9.3 0.7 0 0.6-1 1.4-1.2-0.8 2-1.2 4.5-1.4 7.4-0.5-1.6 0-4 0.1-5.3-0.7 1.1-1.1 0.3-1.1-0.2 0.1-0.8-0.3-0.7-0.6-1-1.1-1-1.8-2.1-2.6-3.8 0.5-1.3 0.6-3.2-1-4.2-0.5-0.3-1.1-0.8-1.4-1.6-0.4-1.1-1.1-2.4-0.9-4.1 0.1-0.5-1.5 1.1-2.4 0.4-3.9-2.7-7.8-5.8-12.5-8.4-2.5 0-4.3-0.9-5.2-2-0.8-1-0.2-2.3 1-2.4 0.7 0 1.5-0.2 2.1 0.2 0.1-0.4 0.5-0.9 1-0.9M50 14.6l0.2 0.1c1 0.2 1.5 1.6 2.6 1.1 0 0.7 0.1 1.4-0.1 1.9-0.3 0.8-1.2 0.8-1.9 0.8-6.7-0.4-10.6 2.4-14.7 4.8-1.1 0.7-2.3 1.2-3.2 2.1-4.3 4-9 7.7-10.1 15.1l-0.9 8.2c-0.1 0.9-1.1 1.8-0.9 2.9l0.7 4.9c-0.7-0.7-1.1 0.2-0.9 0.6 0.1 0.3 0.5 1.3 1.1 0.4 0.8 1.5 1.6 4.4 2.7 5.7 3.4 4 7.8 7.6 11.4 11.2 0.9-0.2 1.6-0.2 1.8-0.8 0.3 0.6-0.3 1.2-0.8 1.3 1.6 1 3.4 1.9 5.8 2.1 3.1 0.2 6 0.7 8.7 1.4 1.4-0.4 2.8-0.6 4.3-0.7 0.5 0 0.8-0.8 1.4-1l0.1-1c0.6 0.9 0.5-0.3 0.1-0.9 0.7 0.6 0.9 1.1 1.2 1.5 0-0.3 0.8-1.4 0.8-0.1l0.2-1.3c0.3-0.2 0.4 1.1 0.7 0.2 0.3-0.9 0.9-0.2 1.5-0.5-0.2 0.4-0.1 1.2 0.6 0.7l0.8-0.7c0.5 1.2 1.3 0.7 1.7 0.5 4.4-2.8 8.8-6.1 13-9.4l-0.1 1.3 0.5-1.6c0.5 0.5 0.9 0.1 1.1-0.2 0.6-1 1.4-2 2.7-2.9-1.6 4.3-3.5 7.7-5.9 10.5l-1 1.2c0 0.7-0.2 1.6-1 1.7-0.4 0.1-1.2-0.2-1.8 0.4-0.3 0.4 0.7 1.2-0.1 0.6-0.7-0.5-1.4 0-2.2 0.2-0.6 0.2 0.4 0.8 0.6 1.2 0.2 0.4 0.4 0.8 0.3 1.3l-1.1-1.2c-1.3 0.7-2.1 2-3.2 3-0.5 0.4-0.3 1.1-0.3 1.7-0.7 0-1.5-0.2-1.9 0.2-0.3 0.4-0.2 1-0.2 1.6-1-0.1-1.1-1.6-2-1.3-0.9 0.2-1.9 0.3-2.7 0.8 0.6 1.2-1 0.5-0.8 0.7-1.5-0.9-2.8-1.6-4.4-1-3.4-1.1-7.6-0.6-10.7-0.2 0-0.5 0.1-1-0.1-1.1-0.2 0.5-0.8 0.3-0.7 0.3-1.9-1.3-3.8-2.1-5.8-3.2-1.8 0.2-3.5-0.7-4-1.2-1.4-1.3-3-0.6-4.3-0.9-2.8-0.7-3.8-3.6-4.1-5.6-0.2-1-1-1.4-1.3-1.3-1.3-4.2-3.3-8-4.9-11.9-0.4-1-0.3-2-0.3-3.1 0.5 0.2 1 0.1 0.9-0.6-0.5-3.3-1.7-5.8-3-8.2 0.7-3.4 0.8-7.4 2.4-10.4 1.4-2.7 4-4.1 5.8-6.4 0.6-0.8 0.6-1.9 1.2-2.6 2-2 4-4.1 6.2-5.9 1-0.8 2.2 0 3.7-0.3 0.5-1.8 2.5-3.4 4.4-2.9 0.8 0.2 2.4-1.9 2.9-2.1 0.8-0.3 0.4 0.8 0.4 1.5 1.9-1.5 4.5-2.3 6.9-3.2" fill="black" fill-rule="nonzero" stroke="none" stroke-width="1" stroke-linecap="butt" stroke-linejoin="miter" stroke-miterlimit="10" stroke-dasharray="" stroke-dashoffset="0" font-family="none" font-weight="none" font-size="none" text-anchor="none" style="mix-blend-mode: normal"></path></g><g transform="matrix(1,0,0,1,129.30156755358985,90)"><svg viewBox="0 0 61.39686489282031 180" height="180" width="61.39686489282031"><g><svg viewBox="0 0 61.39686489282031 180" height="180" width="61.39686489282031"><g><svg viewBox="0 0 124.4413407821229 364.8303765979668" height="180" width="61.39686489282031"><g transform="matrix(1,0,0,1,0,184.8303765979668)"><svg viewBox="0 0 124.4413407821229 180" height="180" width="124.4413407821229"><g id="SvgjsG2420"><svg viewBox="0 0 124.4413407821229 180" height="180" width="124.4413407821229" id="SvgjsSvg2419"><g><svg viewBox="0 0 124.4413407821229 180" height="180" width="124.4413407821229"><g transform="matrix(1,0,0,1,0,0)"><svg width="124.4413407821229" viewBox="4.5 -35.4 24.75 35.8" height="180" data-palette-color="url(#fa180603-7b75-4bed-96d4-a04e13ed6076)"></svg></g></svg></g></svg></g></svg></g><g transform="matrix(1,0,0,1,23.768296089385473,0)"><svg viewBox="0 0 76.90474860335195 158.56405659796678" height="158.56405659796678" width="76.90474860335195"><g><svg xmlns="http://www.w3.org/2000/svg" xmlns:xlink="http://www.w3.org/1999/xlink" version="1.1" x="0" y="0" viewBox="24.83940710972183 2.8 41.06059289027817 84.65971598945407" enable-background="new 0 0 90 90" xml:space="preserve" height="158.56405659796678" width="76.90474860335195" class="icon-icon-0" data-fill-palette-color="accent" id="SvgjsSvg2418"><path d="M33.3 9.2c-0.7 0.9-1.4 1.8-1.9 2.8-16 25.4 2.4 56 1.6 73.4 0 3.4 13.3 2.4 17.5-1.6 4.2-3.9-11-24-11-40.2 0-3.9 0.5-7.2 1.2-9.9 2.2 0.8 4.5 1.3 7 1.3 10 0 18.2-7.2 18.2-16.1S57.8 2.8 47.8 2.8C41.9 2.8 36.7 5.3 33.3 9.2 33.3 9.2 33.3 9.2 33.3 9.2 33.3 9.2 33.3 9.2 33.3 9.2z" fill="white"></path></svg></g></svg></g><g></g></svg></g></svg></g></svg></g></svg></g><defs><mask></mask></defs><mask><g id="SvgjsG2417"><svg viewBox="0 0 320 360" height="360" width="320"><g><svg></svg></g><g><svg viewBox="0 0 320 360" height="360" width="320"><g><path transform="translate(-74.99272,-51.79039) scale(4.65793,4.65793)" d="M20.6 59.9l0.8 1-0.4-1.3c-0.1-0.6-0.8 0.1-0.4 0.3M21.5 59.3c0.3 0.5 0.6 1 0.6 1.5 0 0.7 0.6 1 1.1 1.2-0.7-0.8-1.1-3-1.7-2.7M59.9 16.9c1.7 0 3.3-0.2 5.1 0.2 4.4 1.1 8.1 3.3 10.6 6.4l7 11.2c0.3 2.8 0.9 5.9 0.8 9.3 0.7 0 0.6-1 1.4-1.2-0.8 2-1.2 4.5-1.4 7.4-0.5-1.6 0-4 0.1-5.3-0.7 1.1-1.1 0.3-1.1-0.2 0.1-0.8-0.3-0.7-0.6-1-1.1-1-1.8-2.1-2.6-3.8 0.5-1.3 0.6-3.2-1-4.2-0.5-0.3-1.1-0.8-1.4-1.6-0.4-1.1-1.1-2.4-0.9-4.1 0.1-0.5-1.5 1.1-2.4 0.4-3.9-2.7-7.8-5.8-12.5-8.4-2.5 0-4.3-0.9-5.2-2-0.8-1-0.2-2.3 1-2.4 0.7 0 1.5-0.2 2.1 0.2 0.1-0.4 0.5-0.9 1-0.9M50 14.6l0.2 0.1c1 0.2 1.5 1.6 2.6 1.1 0 0.7 0.1 1.4-0.1 1.9-0.3 0.8-1.2 0.8-1.9 0.8-6.7-0.4-10.6 2.4-14.7 4.8-1.1 0.7-2.3 1.2-3.2 2.1-4.3 4-9 7.7-10.1 15.1l-0.9 8.2c-0.1 0.9-1.1 1.8-0.9 2.9l0.7 4.9c-0.7-0.7-1.1 0.2-0.9 0.6 0.1 0.3 0.5 1.3 1.1 0.4 0.8 1.5 1.6 4.4 2.7 5.7 3.4 4 7.8 7.6 11.4 11.2 0.9-0.2 1.6-0.2 1.8-0.8 0.3 0.6-0.3 1.2-0.8 1.3 1.6 1 3.4 1.9 5.8 2.1 3.1 0.2 6 0.7 8.7 1.4 1.4-0.4 2.8-0.6 4.3-0.7 0.5 0 0.8-0.8 1.4-1l0.1-1c0.6 0.9 0.5-0.3 0.1-0.9 0.7 0.6 0.9 1.1 1.2 1.5 0-0.3 0.8-1.4 0.8-0.1l0.2-1.3c0.3-0.2 0.4 1.1 0.7 0.2 0.3-0.9 0.9-0.2 1.5-0.5-0.2 0.4-0.1 1.2 0.6 0.7l0.8-0.7c0.5 1.2 1.3 0.7 1.7 0.5 4.4-2.8 8.8-6.1 13-9.4l-0.1 1.3 0.5-1.6c0.5 0.5 0.9 0.1 1.1-0.2 0.6-1 1.4-2 2.7-2.9-1.6 4.3-3.5 7.7-5.9 10.5l-1 1.2c0 0.7-0.2 1.6-1 1.7-0.4 0.1-1.2-0.2-1.8 0.4-0.3 0.4 0.7 1.2-0.1 0.6-0.7-0.5-1.4 0-2.2 0.2-0.6 0.2 0.4 0.8 0.6 1.2 0.2 0.4 0.4 0.8 0.3 1.3l-1.1-1.2c-1.3 0.7-2.1 2-3.2 3-0.5 0.4-0.3 1.1-0.3 1.7-0.7 0-1.5-0.2-1.9 0.2-0.3 0.4-0.2 1-0.2 1.6-1-0.1-1.1-1.6-2-1.3-0.9 0.2-1.9 0.3-2.7 0.8 0.6 1.2-1 0.5-0.8 0.7-1.5-0.9-2.8-1.6-4.4-1-3.4-1.1-7.6-0.6-10.7-0.2 0-0.5 0.1-1-0.1-1.1-0.2 0.5-0.8 0.3-0.7 0.3-1.9-1.3-3.8-2.1-5.8-3.2-1.8 0.2-3.5-0.7-4-1.2-1.4-1.3-3-0.6-4.3-0.9-2.8-0.7-3.8-3.6-4.1-5.6-0.2-1-1-1.4-1.3-1.3-1.3-4.2-3.3-8-4.9-11.9-0.4-1-0.3-2-0.3-3.1 0.5 0.2 1 0.1 0.9-0.6-0.5-3.3-1.7-5.8-3-8.2 0.7-3.4 0.8-7.4 2.4-10.4 1.4-2.7 4-4.1 5.8-6.4 0.6-0.8 0.6-1.9 1.2-2.6 2-2 4-4.1 6.2-5.9 1-0.8 2.2 0 3.7-0.3 0.5-1.8 2.5-3.4 4.4-2.9 0.8 0.2 2.4-1.9 2.9-2.1 0.8-0.3 0.4 0.8 0.4 1.5 1.9-1.5 4.5-2.3 6.9-3.2" fill="black" fill-rule="nonzero" stroke="none" stroke-width="1" stroke-linecap="butt" stroke-linejoin="miter" stroke-miterlimit="10" stroke-dasharray="" stroke-dashoffset="0" font-family="none" font-weight="none" font-size="none" text-anchor="none" style="mix-blend-mode: normal"></path></g><g transform="matrix(1,0,0,1,129.30156755358985,90)"><svg viewBox="0 0 61.39686489282031 180" height="180" width="61.39686489282031"><g><svg viewBox="0 0 61.39686489282031 180" height="180" width="61.39686489282031"><g><svg viewBox="0 0 124.4413407821229 364.8303765979668" height="180" width="61.39686489282031"><g transform="matrix(1,0,0,1,0,184.8303765979668)"><svg viewBox="0 0 124.4413407821229 180" height="180" width="124.4413407821229"><g id="SvgjsG2416"><svg viewBox="0 0 124.4413407821229 180" height="180" width="124.4413407821229" id="SvgjsSvg2415"><g><svg viewBox="0 0 124.4413407821229 180" height="180" width="124.4413407821229"><g transform="matrix(1,0,0,1,0,0)"><svg width="124.4413407821229" viewBox="4.5 -35.4 24.75 35.8" height="180" data-palette-color="url(#fa180603-7b75-4bed-96d4-a04e13ed6076)"><path d="M14.6 0.4L14.6 0.4Q11.55 0.4 8.83 0.25 6.1 0.1 4.5-0.1L4.5-0.1 4.5-34.9Q6.25-35.1 8.85-35.25 11.45-35.4 14.8-35.4L14.8-35.4Q21.2-35.4 24.65-32.98 28.1-30.55 28.1-26.4L28.1-26.4Q28.1-23.65 26.63-21.73 25.15-19.8 22.35-18.55L22.35-18.55Q25.75-17.35 27.5-15.23 29.25-13.1 29.25-10L29.25-10Q29.25-5.25 25.5-2.43 21.75 0.4 14.6 0.4ZM9.25-31.3L9.25-19.9 14.75-19.9Q18.7-19.9 21.03-21.55 23.35-23.2 23.35-25.8L23.35-25.8Q23.35-28.6 21.05-30.08 18.75-31.55 14.75-31.55L14.75-31.55Q13.1-31.55 11.75-31.48 10.4-31.4 9.25-31.3L9.25-31.3ZM14.95-3.55L14.95-3.55Q19.4-3.55 21.9-5.15 24.4-6.75 24.4-9.8L24.4-9.8Q24.4-12.8 21.95-14.5 19.5-16.2 14.95-16.2L14.95-16.2 9.25-16.2 9.25-3.85Q11.9-3.55 14.95-3.55Z" opacity="1" transform="matrix(1,0,0,1,0,0)" fill="black" class="wordmark-text-0" id="SvgjsPath2414"></path></svg></g></svg></g></svg></g></svg></g><g transform="matrix(1,0,0,1,23.768296089385473,0)"><svg viewBox="0 0 76.90474860335195 158.56405659796678" height="158.56405659796678" width="76.90474860335195"><g><svg xmlns="http://www.w3.org/2000/svg" xmlns:xlink="http://www.w3.org/1999/xlink" version="1.1" x="0" y="0" viewBox="24.83940710972183 2.8 41.06059289027817 84.65971598945407" enable-background="new 0 0 90 90" xml:space="preserve" height="158.56405659796678" width="76.90474860335195" class="icon-icon-0" data-fill-palette-color="accent" id="SvgjsSvg2413"><path d="M33.3 9.2c-0.7 0.9-1.4 1.8-1.9 2.8-16 25.4 2.4 56 1.6 73.4 0 3.4 13.3 2.4 17.5-1.6 4.2-3.9-11-24-11-40.2 0-3.9 0.5-7.2 1.2-9.9 2.2 0.8 4.5 1.3 7 1.3 10 0 18.2-7.2 18.2-16.1S57.8 2.8 47.8 2.8C41.9 2.8 36.7 5.3 33.3 9.2 33.3 9.2 33.3 9.2 33.3 9.2 33.3 9.2 33.3 9.2 33.3 9.2z" fill="black"></path></svg></g></svg></g><g></g></svg></g></svg></g></svg></g></svg></g><defs><mask></mask></defs></svg><rect width="320" height="360" fill="black" stroke="none" visibility="hidden"></rect></g></mask></svg><rect width="320" height="360" fill="black" stroke="none" visibility="hidden"></rect></g></mask><linearGradient x1="0" x2="1" y1="0.578" y2="0.595" id="0d009b67-18ee-496a-8a40-cf77ac2a9dd8"><stop stop-color="#dede50" offset="0"></stop><stop stop-color="#559c49" offset="1"></stop></linearGradient><rect width="320.000094" height="360" fill="url(#0d009b67-18ee-496a-8a40-cf77ac2a9dd8)" mask="url(#5d2872dc-c14d-41f3-bac7-7f1bc1eba5ad)" data-fill-palette-color="accent"></rect><mask id="84bfed02-28e7-405c-8d58-a6e6ca7b0985"><g id="SvgjsG2439"><svg viewBox="0 0 320 360" height="360" width="320"><g><svg></svg></g><g><svg viewBox="0 0 320 360" height="360" width="320"><g><path transform="translate(-74.99272,-51.79039) scale(4.65793,4.65793)" d="M20.6 59.9l0.8 1-0.4-1.3c-0.1-0.6-0.8 0.1-0.4 0.3M21.5 59.3c0.3 0.5 0.6 1 0.6 1.5 0 0.7 0.6 1 1.1 1.2-0.7-0.8-1.1-3-1.7-2.7M59.9 16.9c1.7 0 3.3-0.2 5.1 0.2 4.4 1.1 8.1 3.3 10.6 6.4l7 11.2c0.3 2.8 0.9 5.9 0.8 9.3 0.7 0 0.6-1 1.4-1.2-0.8 2-1.2 4.5-1.4 7.4-0.5-1.6 0-4 0.1-5.3-0.7 1.1-1.1 0.3-1.1-0.2 0.1-0.8-0.3-0.7-0.6-1-1.1-1-1.8-2.1-2.6-3.8 0.5-1.3 0.6-3.2-1-4.2-0.5-0.3-1.1-0.8-1.4-1.6-0.4-1.1-1.1-2.4-0.9-4.1 0.1-0.5-1.5 1.1-2.4 0.4-3.9-2.7-7.8-5.8-12.5-8.4-2.5 0-4.3-0.9-5.2-2-0.8-1-0.2-2.3 1-2.4 0.7 0 1.5-0.2 2.1 0.2 0.1-0.4 0.5-0.9 1-0.9M50 14.6l0.2 0.1c1 0.2 1.5 1.6 2.6 1.1 0 0.7 0.1 1.4-0.1 1.9-0.3 0.8-1.2 0.8-1.9 0.8-6.7-0.4-10.6 2.4-14.7 4.8-1.1 0.7-2.3 1.2-3.2 2.1-4.3 4-9 7.7-10.1 15.1l-0.9 8.2c-0.1 0.9-1.1 1.8-0.9 2.9l0.7 4.9c-0.7-0.7-1.1 0.2-0.9 0.6 0.1 0.3 0.5 1.3 1.1 0.4 0.8 1.5 1.6 4.4 2.7 5.7 3.4 4 7.8 7.6 11.4 11.2 0.9-0.2 1.6-0.2 1.8-0.8 0.3 0.6-0.3 1.2-0.8 1.3 1.6 1 3.4 1.9 5.8 2.1 3.1 0.2 6 0.7 8.7 1.4 1.4-0.4 2.8-0.6 4.3-0.7 0.5 0 0.8-0.8 1.4-1l0.1-1c0.6 0.9 0.5-0.3 0.1-0.9 0.7 0.6 0.9 1.1 1.2 1.5 0-0.3 0.8-1.4 0.8-0.1l0.2-1.3c0.3-0.2 0.4 1.1 0.7 0.2 0.3-0.9 0.9-0.2 1.5-0.5-0.2 0.4-0.1 1.2 0.6 0.7l0.8-0.7c0.5 1.2 1.3 0.7 1.7 0.5 4.4-2.8 8.8-6.1 13-9.4l-0.1 1.3 0.5-1.6c0.5 0.5 0.9 0.1 1.1-0.2 0.6-1 1.4-2 2.7-2.9-1.6 4.3-3.5 7.7-5.9 10.5l-1 1.2c0 0.7-0.2 1.6-1 1.7-0.4 0.1-1.2-0.2-1.8 0.4-0.3 0.4 0.7 1.2-0.1 0.6-0.7-0.5-1.4 0-2.2 0.2-0.6 0.2 0.4 0.8 0.6 1.2 0.2 0.4 0.4 0.8 0.3 1.3l-1.1-1.2c-1.3 0.7-2.1 2-3.2 3-0.5 0.4-0.3 1.1-0.3 1.7-0.7 0-1.5-0.2-1.9 0.2-0.3 0.4-0.2 1-0.2 1.6-1-0.1-1.1-1.6-2-1.3-0.9 0.2-1.9 0.3-2.7 0.8 0.6 1.2-1 0.5-0.8 0.7-1.5-0.9-2.8-1.6-4.4-1-3.4-1.1-7.6-0.6-10.7-0.2 0-0.5 0.1-1-0.1-1.1-0.2 0.5-0.8 0.3-0.7 0.3-1.9-1.3-3.8-2.1-5.8-3.2-1.8 0.2-3.5-0.7-4-1.2-1.4-1.3-3-0.6-4.3-0.9-2.8-0.7-3.8-3.6-4.1-5.6-0.2-1-1-1.4-1.3-1.3-1.3-4.2-3.3-8-4.9-11.9-0.4-1-0.3-2-0.3-3.1 0.5 0.2 1 0.1 0.9-0.6-0.5-3.3-1.7-5.8-3-8.2 0.7-3.4 0.8-7.4 2.4-10.4 1.4-2.7 4-4.1 5.8-6.4 0.6-0.8 0.6-1.9 1.2-2.6 2-2 4-4.1 6.2-5.9 1-0.8 2.2 0 3.7-0.3 0.5-1.8 2.5-3.4 4.4-2.9 0.8 0.2 2.4-1.9 2.9-2.1 0.8-0.3 0.4 0.8 0.4 1.5 1.9-1.5 4.5-2.3 6.9-3.2" fill="white" fill-rule="nonzero" stroke="none" stroke-width="1" stroke-linecap="butt" stroke-linejoin="miter" stroke-miterlimit="10" stroke-dasharray="" stroke-dashoffset="0" font-family="none" font-weight="none" font-size="none" text-anchor="none" style="mix-blend-mode: normal"></path></g><g transform="matrix(1,0,0,1,129.30156755358985,90)"><svg viewBox="0 0 61.39686489282031 180" height="180" width="61.39686489282031"><g><svg viewBox="0 0 61.39686489282031 180" height="180" width="61.39686489282031"><g><svg viewBox="0 0 124.4413407821229 364.8303765979668" height="180" width="61.39686489282031"><g transform="matrix(1,0,0,1,0,184.8303765979668)"><svg viewBox="0 0 124.4413407821229 180" height="180" width="124.4413407821229"><g id="SvgjsG2438"><svg viewBox="0 0 124.4413407821229 180" height="180" width="124.4413407821229" id="SvgjsSvg2437"><g><svg viewBox="0 0 124.4413407821229 180" height="180" width="124.4413407821229"><g transform="matrix(1,0,0,1,0,0)"><svg width="124.4413407821229" viewBox="4.5 -35.4 24.75 35.8" height="180" data-palette-color="url(#fa180603-7b75-4bed-96d4-a04e13ed6076)"></svg></g></svg></g></svg></g></svg></g><g transform="matrix(1,0,0,1,23.768296089385473,0)"><svg viewBox="0 0 76.90474860335195 158.56405659796678" height="158.56405659796678" width="76.90474860335195"><g><svg xmlns="http://www.w3.org/2000/svg" xmlns:xlink="http://www.w3.org/1999/xlink" version="1.1" x="0" y="0" viewBox="24.83940710972183 2.8 41.06059289027817 84.65971598945407" enable-background="new 0 0 90 90" xml:space="preserve" height="158.56405659796678" width="76.90474860335195" class="icon-icon-0" data-fill-palette-color="accent" id="SvgjsSvg2436"></svg></g></svg></g><g></g></svg></g></svg></g></svg></g></svg></g><defs><mask></mask></defs><mask><g id="SvgjsG2435"><svg viewBox="0 0 320 360" height="360" width="320"><g><svg></svg></g><g><svg viewBox="0 0 320 360" height="360" width="320"><g><path transform="translate(-74.99272,-51.79039) scale(4.65793,4.65793)" d="M20.6 59.9l0.8 1-0.4-1.3c-0.1-0.6-0.8 0.1-0.4 0.3M21.5 59.3c0.3 0.5 0.6 1 0.6 1.5 0 0.7 0.6 1 1.1 1.2-0.7-0.8-1.1-3-1.7-2.7M59.9 16.9c1.7 0 3.3-0.2 5.1 0.2 4.4 1.1 8.1 3.3 10.6 6.4l7 11.2c0.3 2.8 0.9 5.9 0.8 9.3 0.7 0 0.6-1 1.4-1.2-0.8 2-1.2 4.5-1.4 7.4-0.5-1.6 0-4 0.1-5.3-0.7 1.1-1.1 0.3-1.1-0.2 0.1-0.8-0.3-0.7-0.6-1-1.1-1-1.8-2.1-2.6-3.8 0.5-1.3 0.6-3.2-1-4.2-0.5-0.3-1.1-0.8-1.4-1.6-0.4-1.1-1.1-2.4-0.9-4.1 0.1-0.5-1.5 1.1-2.4 0.4-3.9-2.7-7.8-5.8-12.5-8.4-2.5 0-4.3-0.9-5.2-2-0.8-1-0.2-2.3 1-2.4 0.7 0 1.5-0.2 2.1 0.2 0.1-0.4 0.5-0.9 1-0.9M50 14.6l0.2 0.1c1 0.2 1.5 1.6 2.6 1.1 0 0.7 0.1 1.4-0.1 1.9-0.3 0.8-1.2 0.8-1.9 0.8-6.7-0.4-10.6 2.4-14.7 4.8-1.1 0.7-2.3 1.2-3.2 2.1-4.3 4-9 7.7-10.1 15.1l-0.9 8.2c-0.1 0.9-1.1 1.8-0.9 2.9l0.7 4.9c-0.7-0.7-1.1 0.2-0.9 0.6 0.1 0.3 0.5 1.3 1.1 0.4 0.8 1.5 1.6 4.4 2.7 5.7 3.4 4 7.8 7.6 11.4 11.2 0.9-0.2 1.6-0.2 1.8-0.8 0.3 0.6-0.3 1.2-0.8 1.3 1.6 1 3.4 1.9 5.8 2.1 3.1 0.2 6 0.7 8.7 1.4 1.4-0.4 2.8-0.6 4.3-0.7 0.5 0 0.8-0.8 1.4-1l0.1-1c0.6 0.9 0.5-0.3 0.1-0.9 0.7 0.6 0.9 1.1 1.2 1.5 0-0.3 0.8-1.4 0.8-0.1l0.2-1.3c0.3-0.2 0.4 1.1 0.7 0.2 0.3-0.9 0.9-0.2 1.5-0.5-0.2 0.4-0.1 1.2 0.6 0.7l0.8-0.7c0.5 1.2 1.3 0.7 1.7 0.5 4.4-2.8 8.8-6.1 13-9.4l-0.1 1.3 0.5-1.6c0.5 0.5 0.9 0.1 1.1-0.2 0.6-1 1.4-2 2.7-2.9-1.6 4.3-3.5 7.7-5.9 10.5l-1 1.2c0 0.7-0.2 1.6-1 1.7-0.4 0.1-1.2-0.2-1.8 0.4-0.3 0.4 0.7 1.2-0.1 0.6-0.7-0.5-1.4 0-2.2 0.2-0.6 0.2 0.4 0.8 0.6 1.2 0.2 0.4 0.4 0.8 0.3 1.3l-1.1-1.2c-1.3 0.7-2.1 2-3.2 3-0.5 0.4-0.3 1.1-0.3 1.7-0.7 0-1.5-0.2-1.9 0.2-0.3 0.4-0.2 1-0.2 1.6-1-0.1-1.1-1.6-2-1.3-0.9 0.2-1.9 0.3-2.7 0.8 0.6 1.2-1 0.5-0.8 0.7-1.5-0.9-2.8-1.6-4.4-1-3.4-1.1-7.6-0.6-10.7-0.2 0-0.5 0.1-1-0.1-1.1-0.2 0.5-0.8 0.3-0.7 0.3-1.9-1.3-3.8-2.1-5.8-3.2-1.8 0.2-3.5-0.7-4-1.2-1.4-1.3-3-0.6-4.3-0.9-2.8-0.7-3.8-3.6-4.1-5.6-0.2-1-1-1.4-1.3-1.3-1.3-4.2-3.3-8-4.9-11.9-0.4-1-0.3-2-0.3-3.1 0.5 0.2 1 0.1 0.9-0.6-0.5-3.3-1.7-5.8-3-8.2 0.7-3.4 0.8-7.4 2.4-10.4 1.4-2.7 4-4.1 5.8-6.4 0.6-0.8 0.6-1.9 1.2-2.6 2-2 4-4.1 6.2-5.9 1-0.8 2.2 0 3.7-0.3 0.5-1.8 2.5-3.4 4.4-2.9 0.8 0.2 2.4-1.9 2.9-2.1 0.8-0.3 0.4 0.8 0.4 1.5 1.9-1.5 4.5-2.3 6.9-3.2" fill="black" fill-rule="nonzero" stroke="none" stroke-width="1" stroke-linecap="butt" stroke-linejoin="miter" stroke-miterlimit="10" stroke-dasharray="" stroke-dashoffset="0" font-family="none" font-weight="none" font-size="none" text-anchor="none" style="mix-blend-mode: normal"></path></g><g transform="matrix(1,0,0,1,129.30156755358985,90)"><svg viewBox="0 0 61.39686489282031 180" height="180" width="61.39686489282031"><g><svg viewBox="0 0 61.39686489282031 180" height="180" width="61.39686489282031"><g><svg viewBox="0 0 124.4413407821229 364.8303765979668" height="180" width="61.39686489282031"><g transform="matrix(1,0,0,1,0,184.8303765979668)"><svg viewBox="0 0 124.4413407821229 180" height="180" width="124.4413407821229"><g id="SvgjsG2434"><svg viewBox="0 0 124.4413407821229 180" height="180" width="124.4413407821229" id="SvgjsSvg2433"><g><svg viewBox="0 0 124.4413407821229 180" height="180" width="124.4413407821229"><g transform="matrix(1,0,0,1,0,0)"><svg width="124.4413407821229" viewBox="4.5 -35.4 24.75 35.8" height="180" data-palette-color="url(#fa180603-7b75-4bed-96d4-a04e13ed6076)"><path d="M14.6 0.4L14.6 0.4Q11.55 0.4 8.83 0.25 6.1 0.1 4.5-0.1L4.5-0.1 4.5-34.9Q6.25-35.1 8.85-35.25 11.45-35.4 14.8-35.4L14.8-35.4Q21.2-35.4 24.65-32.98 28.1-30.55 28.1-26.4L28.1-26.4Q28.1-23.65 26.63-21.73 25.15-19.8 22.35-18.55L22.35-18.55Q25.75-17.35 27.5-15.23 29.25-13.1 29.25-10L29.25-10Q29.25-5.25 25.5-2.43 21.75 0.4 14.6 0.4ZM9.25-31.3L9.25-19.9 14.75-19.9Q18.7-19.9 21.03-21.55 23.35-23.2 23.35-25.8L23.35-25.8Q23.35-28.6 21.05-30.08 18.75-31.55 14.75-31.55L14.75-31.55Q13.1-31.55 11.75-31.48 10.4-31.4 9.25-31.3L9.25-31.3ZM14.95-3.55L14.95-3.55Q19.4-3.55 21.9-5.15 24.4-6.75 24.4-9.8L24.4-9.8Q24.4-12.8 21.95-14.5 19.5-16.2 14.95-16.2L14.95-16.2 9.25-16.2 9.25-3.85Q11.9-3.55 14.95-3.55Z" opacity="1" transform="matrix(1,0,0,1,0,0)" fill="black" class="wordmark-text-0" id="SvgjsPath2432"></path></svg></g></svg></g></svg></g></svg></g><g transform="matrix(1,0,0,1,23.768296089385473,0)"><svg viewBox="0 0 76.90474860335195 158.56405659796678" height="158.56405659796678" width="76.90474860335195"><g><svg xmlns="http://www.w3.org/2000/svg" xmlns:xlink="http://www.w3.org/1999/xlink" version="1.1" x="0" y="0" viewBox="24.83940710972183 2.8 41.06059289027817 84.65971598945407" enable-background="new 0 0 90 90" xml:space="preserve" height="158.56405659796678" width="76.90474860335195" class="icon-icon-0" data-fill-palette-color="accent" id="SvgjsSvg2431"><path d="M33.3 9.2c-0.7 0.9-1.4 1.8-1.9 2.8-16 25.4 2.4 56 1.6 73.4 0 3.4 13.3 2.4 17.5-1.6 4.2-3.9-11-24-11-40.2 0-3.9 0.5-7.2 1.2-9.9 2.2 0.8 4.5 1.3 7 1.3 10 0 18.2-7.2 18.2-16.1S57.8 2.8 47.8 2.8C41.9 2.8 36.7 5.3 33.3 9.2 33.3 9.2 33.3 9.2 33.3 9.2 33.3 9.2 33.3 9.2 33.3 9.2z" fill="black"></path></svg></g></svg></g><g></g></svg></g></svg></g></svg></g></svg></g><defs><mask></mask></defs></svg><rect width="320" height="360" fill="black" stroke="none" visibility="hidden"></rect></g></mask><mask><g id="SvgjsG2430"><svg viewBox="0 0 320 360" height="360" width="320"><g><svg></svg></g><g><svg viewBox="0 0 320 360" height="360" width="320"><g><path transform="translate(-74.99272,-51.79039) scale(4.65793,4.65793)" d="M20.6 59.9l0.8 1-0.4-1.3c-0.1-0.6-0.8 0.1-0.4 0.3M21.5 59.3c0.3 0.5 0.6 1 0.6 1.5 0 0.7 0.6 1 1.1 1.2-0.7-0.8-1.1-3-1.7-2.7M59.9 16.9c1.7 0 3.3-0.2 5.1 0.2 4.4 1.1 8.1 3.3 10.6 6.4l7 11.2c0.3 2.8 0.9 5.9 0.8 9.3 0.7 0 0.6-1 1.4-1.2-0.8 2-1.2 4.5-1.4 7.4-0.5-1.6 0-4 0.1-5.3-0.7 1.1-1.1 0.3-1.1-0.2 0.1-0.8-0.3-0.7-0.6-1-1.1-1-1.8-2.1-2.6-3.8 0.5-1.3 0.6-3.2-1-4.2-0.5-0.3-1.1-0.8-1.4-1.6-0.4-1.1-1.1-2.4-0.9-4.1 0.1-0.5-1.5 1.1-2.4 0.4-3.9-2.7-7.8-5.8-12.5-8.4-2.5 0-4.3-0.9-5.2-2-0.8-1-0.2-2.3 1-2.4 0.7 0 1.5-0.2 2.1 0.2 0.1-0.4 0.5-0.9 1-0.9M50 14.6l0.2 0.1c1 0.2 1.5 1.6 2.6 1.1 0 0.7 0.1 1.4-0.1 1.9-0.3 0.8-1.2 0.8-1.9 0.8-6.7-0.4-10.6 2.4-14.7 4.8-1.1 0.7-2.3 1.2-3.2 2.1-4.3 4-9 7.7-10.1 15.1l-0.9 8.2c-0.1 0.9-1.1 1.8-0.9 2.9l0.7 4.9c-0.7-0.7-1.1 0.2-0.9 0.6 0.1 0.3 0.5 1.3 1.1 0.4 0.8 1.5 1.6 4.4 2.7 5.7 3.4 4 7.8 7.6 11.4 11.2 0.9-0.2 1.6-0.2 1.8-0.8 0.3 0.6-0.3 1.2-0.8 1.3 1.6 1 3.4 1.9 5.8 2.1 3.1 0.2 6 0.7 8.7 1.4 1.4-0.4 2.8-0.6 4.3-0.7 0.5 0 0.8-0.8 1.4-1l0.1-1c0.6 0.9 0.5-0.3 0.1-0.9 0.7 0.6 0.9 1.1 1.2 1.5 0-0.3 0.8-1.4 0.8-0.1l0.2-1.3c0.3-0.2 0.4 1.1 0.7 0.2 0.3-0.9 0.9-0.2 1.5-0.5-0.2 0.4-0.1 1.2 0.6 0.7l0.8-0.7c0.5 1.2 1.3 0.7 1.7 0.5 4.4-2.8 8.8-6.1 13-9.4l-0.1 1.3 0.5-1.6c0.5 0.5 0.9 0.1 1.1-0.2 0.6-1 1.4-2 2.7-2.9-1.6 4.3-3.5 7.7-5.9 10.5l-1 1.2c0 0.7-0.2 1.6-1 1.7-0.4 0.1-1.2-0.2-1.8 0.4-0.3 0.4 0.7 1.2-0.1 0.6-0.7-0.5-1.4 0-2.2 0.2-0.6 0.2 0.4 0.8 0.6 1.2 0.2 0.4 0.4 0.8 0.3 1.3l-1.1-1.2c-1.3 0.7-2.1 2-3.2 3-0.5 0.4-0.3 1.1-0.3 1.7-0.7 0-1.5-0.2-1.9 0.2-0.3 0.4-0.2 1-0.2 1.6-1-0.1-1.1-1.6-2-1.3-0.9 0.2-1.9 0.3-2.7 0.8 0.6 1.2-1 0.5-0.8 0.7-1.5-0.9-2.8-1.6-4.4-1-3.4-1.1-7.6-0.6-10.7-0.2 0-0.5 0.1-1-0.1-1.1-0.2 0.5-0.8 0.3-0.7 0.3-1.9-1.3-3.8-2.1-5.8-3.2-1.8 0.2-3.5-0.7-4-1.2-1.4-1.3-3-0.6-4.3-0.9-2.8-0.7-3.8-3.6-4.1-5.6-0.2-1-1-1.4-1.3-1.3-1.3-4.2-3.3-8-4.9-11.9-0.4-1-0.3-2-0.3-3.1 0.5 0.2 1 0.1 0.9-0.6-0.5-3.3-1.7-5.8-3-8.2 0.7-3.4 0.8-7.4 2.4-10.4 1.4-2.7 4-4.1 5.8-6.4 0.6-0.8 0.6-1.9 1.2-2.6 2-2 4-4.1 6.2-5.9 1-0.8 2.2 0 3.7-0.3 0.5-1.8 2.5-3.4 4.4-2.9 0.8 0.2 2.4-1.9 2.9-2.1 0.8-0.3 0.4 0.8 0.4 1.5 1.9-1.5 4.5-2.3 6.9-3.2" fill="black" fill-rule="nonzero" stroke="none" stroke-width="1" stroke-linecap="butt" stroke-linejoin="miter" stroke-miterlimit="10" stroke-dasharray="" stroke-dashoffset="0" font-family="none" font-weight="none" font-size="none" text-anchor="none" style="mix-blend-mode: normal"></path></g><g transform="matrix(1,0,0,1,129.30156755358985,90)"><svg viewBox="0 0 61.39686489282031 180" height="180" width="61.39686489282031"><g><svg viewBox="0 0 61.39686489282031 180" height="180" width="61.39686489282031"><g><svg viewBox="0 0 124.4413407821229 364.8303765979668" height="180" width="61.39686489282031"><g transform="matrix(1,0,0,1,0,184.8303765979668)"><svg viewBox="0 0 124.4413407821229 180" height="180" width="124.4413407821229"><g id="SvgjsG2429"><svg viewBox="0 0 124.4413407821229 180" height="180" width="124.4413407821229" id="SvgjsSvg2428"><g><svg viewBox="0 0 124.4413407821229 180" height="180" width="124.4413407821229"><g transform="matrix(1,0,0,1,0,0)"><svg width="124.4413407821229" viewBox="4.5 -35.4 24.75 35.8" height="180" data-palette-color="url(#fa180603-7b75-4bed-96d4-a04e13ed6076)"></svg></g></svg></g></svg></g></svg></g><g transform="matrix(1,0,0,1,23.768296089385473,0)"><svg viewBox="0 0 76.90474860335195 158.56405659796678" height="158.56405659796678" width="76.90474860335195"><g><svg xmlns="http://www.w3.org/2000/svg" xmlns:xlink="http://www.w3.org/1999/xlink" version="1.1" x="0" y="0" viewBox="24.83940710972183 2.8 41.06059289027817 84.65971598945407" enable-background="new 0 0 90 90" xml:space="preserve" height="158.56405659796678" width="76.90474860335195" class="icon-icon-0" data-fill-palette-color="accent" id="SvgjsSvg2427"><path d="M33.3 9.2c-0.7 0.9-1.4 1.8-1.9 2.8-16 25.4 2.4 56 1.6 73.4 0 3.4 13.3 2.4 17.5-1.6 4.2-3.9-11-24-11-40.2 0-3.9 0.5-7.2 1.2-9.9 2.2 0.8 4.5 1.3 7 1.3 10 0 18.2-7.2 18.2-16.1S57.8 2.8 47.8 2.8C41.9 2.8 36.7 5.3 33.3 9.2 33.3 9.2 33.3 9.2 33.3 9.2 33.3 9.2 33.3 9.2 33.3 9.2z" fill="black"></path></svg></g></svg></g><g></g></svg></g></svg></g></svg></g></svg></g><defs><mask></mask></defs><mask><g id="SvgjsG2426"><svg viewBox="0 0 320 360" height="360" width="320"><g><svg></svg></g><g><svg viewBox="0 0 320 360" height="360" width="320"><g><path transform="translate(-74.99272,-51.79039) scale(4.65793,4.65793)" d="M20.6 59.9l0.8 1-0.4-1.3c-0.1-0.6-0.8 0.1-0.4 0.3M21.5 59.3c0.3 0.5 0.6 1 0.6 1.5 0 0.7 0.6 1 1.1 1.2-0.7-0.8-1.1-3-1.7-2.7M59.9 16.9c1.7 0 3.3-0.2 5.1 0.2 4.4 1.1 8.1 3.3 10.6 6.4l7 11.2c0.3 2.8 0.9 5.9 0.8 9.3 0.7 0 0.6-1 1.4-1.2-0.8 2-1.2 4.5-1.4 7.4-0.5-1.6 0-4 0.1-5.3-0.7 1.1-1.1 0.3-1.1-0.2 0.1-0.8-0.3-0.7-0.6-1-1.1-1-1.8-2.1-2.6-3.8 0.5-1.3 0.6-3.2-1-4.2-0.5-0.3-1.1-0.8-1.4-1.6-0.4-1.1-1.1-2.4-0.9-4.1 0.1-0.5-1.5 1.1-2.4 0.4-3.9-2.7-7.8-5.8-12.5-8.4-2.5 0-4.3-0.9-5.2-2-0.8-1-0.2-2.3 1-2.4 0.7 0 1.5-0.2 2.1 0.2 0.1-0.4 0.5-0.9 1-0.9M50 14.6l0.2 0.1c1 0.2 1.5 1.6 2.6 1.1 0 0.7 0.1 1.4-0.1 1.9-0.3 0.8-1.2 0.8-1.9 0.8-6.7-0.4-10.6 2.4-14.7 4.8-1.1 0.7-2.3 1.2-3.2 2.1-4.3 4-9 7.7-10.1 15.1l-0.9 8.2c-0.1 0.9-1.1 1.8-0.9 2.9l0.7 4.9c-0.7-0.7-1.1 0.2-0.9 0.6 0.1 0.3 0.5 1.3 1.1 0.4 0.8 1.5 1.6 4.4 2.7 5.7 3.4 4 7.8 7.6 11.4 11.2 0.9-0.2 1.6-0.2 1.8-0.8 0.3 0.6-0.3 1.2-0.8 1.3 1.6 1 3.4 1.9 5.8 2.1 3.1 0.2 6 0.7 8.7 1.4 1.4-0.4 2.8-0.6 4.3-0.7 0.5 0 0.8-0.8 1.4-1l0.1-1c0.6 0.9 0.5-0.3 0.1-0.9 0.7 0.6 0.9 1.1 1.2 1.5 0-0.3 0.8-1.4 0.8-0.1l0.2-1.3c0.3-0.2 0.4 1.1 0.7 0.2 0.3-0.9 0.9-0.2 1.5-0.5-0.2 0.4-0.1 1.2 0.6 0.7l0.8-0.7c0.5 1.2 1.3 0.7 1.7 0.5 4.4-2.8 8.8-6.1 13-9.4l-0.1 1.3 0.5-1.6c0.5 0.5 0.9 0.1 1.1-0.2 0.6-1 1.4-2 2.7-2.9-1.6 4.3-3.5 7.7-5.9 10.5l-1 1.2c0 0.7-0.2 1.6-1 1.7-0.4 0.1-1.2-0.2-1.8 0.4-0.3 0.4 0.7 1.2-0.1 0.6-0.7-0.5-1.4 0-2.2 0.2-0.6 0.2 0.4 0.8 0.6 1.2 0.2 0.4 0.4 0.8 0.3 1.3l-1.1-1.2c-1.3 0.7-2.1 2-3.2 3-0.5 0.4-0.3 1.1-0.3 1.7-0.7 0-1.5-0.2-1.9 0.2-0.3 0.4-0.2 1-0.2 1.6-1-0.1-1.1-1.6-2-1.3-0.9 0.2-1.9 0.3-2.7 0.8 0.6 1.2-1 0.5-0.8 0.7-1.5-0.9-2.8-1.6-4.4-1-3.4-1.1-7.6-0.6-10.7-0.2 0-0.5 0.1-1-0.1-1.1-0.2 0.5-0.8 0.3-0.7 0.3-1.9-1.3-3.8-2.1-5.8-3.2-1.8 0.2-3.5-0.7-4-1.2-1.4-1.3-3-0.6-4.3-0.9-2.8-0.7-3.8-3.6-4.1-5.6-0.2-1-1-1.4-1.3-1.3-1.3-4.2-3.3-8-4.9-11.9-0.4-1-0.3-2-0.3-3.1 0.5 0.2 1 0.1 0.9-0.6-0.5-3.3-1.7-5.8-3-8.2 0.7-3.4 0.8-7.4 2.4-10.4 1.4-2.7 4-4.1 5.8-6.4 0.6-0.8 0.6-1.9 1.2-2.6 2-2 4-4.1 6.2-5.9 1-0.8 2.2 0 3.7-0.3 0.5-1.8 2.5-3.4 4.4-2.9 0.8 0.2 2.4-1.9 2.9-2.1 0.8-0.3 0.4 0.8 0.4 1.5 1.9-1.5 4.5-2.3 6.9-3.2" fill="black" fill-rule="nonzero" stroke="none" stroke-width="1" stroke-linecap="butt" stroke-linejoin="miter" stroke-miterlimit="10" stroke-dasharray="" stroke-dashoffset="0" font-family="none" font-weight="none" font-size="none" text-anchor="none" style="mix-blend-mode: normal"></path></g><g transform="matrix(1,0,0,1,129.30156755358985,90)"><svg viewBox="0 0 61.39686489282031 180" height="180" width="61.39686489282031"><g><svg viewBox="0 0 61.39686489282031 180" height="180" width="61.39686489282031"><g><svg viewBox="0 0 124.4413407821229 364.8303765979668" height="180" width="61.39686489282031"><g transform="matrix(1,0,0,1,0,184.8303765979668)"><svg viewBox="0 0 124.4413407821229 180" height="180" width="124.4413407821229"><g id="SvgjsG2425"><svg viewBox="0 0 124.4413407821229 180" height="180" width="124.4413407821229" id="SvgjsSvg2424"><g><svg viewBox="0 0 124.4413407821229 180" height="180" width="124.4413407821229"><g transform="matrix(1,0,0,1,0,0)"><svg width="124.4413407821229" viewBox="4.5 -35.4 24.75 35.8" height="180" data-palette-color="url(#fa180603-7b75-4bed-96d4-a04e13ed6076)"><path d="M14.6 0.4L14.6 0.4Q11.55 0.4 8.83 0.25 6.1 0.1 4.5-0.1L4.5-0.1 4.5-34.9Q6.25-35.1 8.85-35.25 11.45-35.4 14.8-35.4L14.8-35.4Q21.2-35.4 24.65-32.98 28.1-30.55 28.1-26.4L28.1-26.4Q28.1-23.65 26.63-21.73 25.15-19.8 22.35-18.55L22.35-18.55Q25.75-17.35 27.5-15.23 29.25-13.1 29.25-10L29.25-10Q29.25-5.25 25.5-2.43 21.75 0.4 14.6 0.4ZM9.25-31.3L9.25-19.9 14.75-19.9Q18.7-19.9 21.03-21.55 23.35-23.2 23.35-25.8L23.35-25.8Q23.35-28.6 21.05-30.08 18.75-31.55 14.75-31.55L14.75-31.55Q13.1-31.55 11.75-31.48 10.4-31.4 9.25-31.3L9.25-31.3ZM14.95-3.55L14.95-3.55Q19.4-3.55 21.9-5.15 24.4-6.75 24.4-9.8L24.4-9.8Q24.4-12.8 21.95-14.5 19.5-16.2 14.95-16.2L14.95-16.2 9.25-16.2 9.25-3.85Q11.9-3.55 14.95-3.55Z" opacity="1" transform="matrix(1,0,0,1,0,0)" fill="black" class="wordmark-text-0" id="SvgjsPath2423"></path></svg></g></svg></g></svg></g></svg></g><g transform="matrix(1,0,0,1,23.768296089385473,0)"><svg viewBox="0 0 76.90474860335195 158.56405659796678" height="158.56405659796678" width="76.90474860335195"><g><svg xmlns="http://www.w3.org/2000/svg" xmlns:xlink="http://www.w3.org/1999/xlink" version="1.1" x="0" y="0" viewBox="24.83940710972183 2.8 41.06059289027817 84.65971598945407" enable-background="new 0 0 90 90" xml:space="preserve" height="158.56405659796678" width="76.90474860335195" class="icon-icon-0" data-fill-palette-color="accent" id="SvgjsSvg2422"><path d="M33.3 9.2c-0.7 0.9-1.4 1.8-1.9 2.8-16 25.4 2.4 56 1.6 73.4 0 3.4 13.3 2.4 17.5-1.6 4.2-3.9-11-24-11-40.2 0-3.9 0.5-7.2 1.2-9.9 2.2 0.8 4.5 1.3 7 1.3 10 0 18.2-7.2 18.2-16.1S57.8 2.8 47.8 2.8C41.9 2.8 36.7 5.3 33.3 9.2 33.3 9.2 33.3 9.2 33.3 9.2 33.3 9.2 33.3 9.2 33.3 9.2z" fill="black"></path></svg></g></svg></g><g></g></svg></g></svg></g></svg></g></svg></g><defs><mask></mask></defs></svg><rect width="320" height="360" fill="black" stroke="none" visibility="hidden"></rect></g></mask></svg><rect width="320" height="360" fill="black" stroke="none" visibility="hidden"></rect></g></mask></svg><rect width="320" height="360" fill="black" stroke="none" visibility="hidden"></rect></g></mask><linearGradient x1="0" x2="1" y1="0.578" y2="0.595" id="b3e30de0-2ed9-47cd-85db-33ae1b11ef82"><stop stop-color="#dede50" offset="0"></stop><stop stop-color="#559c49" offset="1"></stop></linearGradient></svg><rect width="320" height="360" fill="none" stroke="none" visibility="hidden"></rect></g></svg></g></svg>